<svg id="calendar" xmlns="http://www.w3.org/2000/svg" width="20" height="20" viewBox="0 0 20 20">
  <path id="Vector" d="M.625,3.75A.63.63,0,0,1,0,3.125V.625A.63.63,0,0,1,.625,0,.63.63,0,0,1,1.25.625v2.5A.63.63,0,0,1,.625,3.75Z" transform="translate(6.042 1.042)" fill="#8a8d9f"/>
  <path id="Vector-2" data-name="Vector" d="M.625,3.75A.63.63,0,0,1,0,3.125V.625A.63.63,0,0,1,.625,0,.63.63,0,0,1,1.25.625v2.5A.63.63,0,0,1,.625,3.75Z" transform="translate(12.708 1.042)" fill="#8a8d9f"/>
  <path id="Vector-3" data-name="Vector" d="M.833,1.662A.83.83,0,0,1,.517,1.6.86.86,0,0,1,.242,1.42.861.861,0,0,1,0,.829.83.83,0,0,1,.067.512.962.962,0,0,1,.242.237.86.86,0,0,1,.517.062a.851.851,0,0,1,.908.175.876.876,0,0,1,.242.592A1.253,1.253,0,0,1,1.65,1a.53.53,0,0,1-.05.15.631.631,0,0,1-.075.15,1.313,1.313,0,0,1-.1.125A.876.876,0,0,1,.833,1.662Z" transform="translate(6.25 10.421)" fill="#8a8d9f"/>
  <path id="Vector-4" data-name="Vector" d="M.833,1.666A.83.83,0,0,1,.517,1.6a.86.86,0,0,1-.275-.175A.861.861,0,0,1,0,.832.83.83,0,0,1,.067.516.962.962,0,0,1,.242.241.86.86,0,0,1,.517.066a.835.835,0,0,1,.908.175.876.876,0,0,1,.242.592A1.253,1.253,0,0,1,1.65,1a.53.53,0,0,1-.05.15.631.631,0,0,1-.075.15,1.313,1.313,0,0,1-.1.125A.876.876,0,0,1,.833,1.666Z" transform="translate(9.167 10.418)" fill="#8a8d9f"/>
  <path id="Vector-5" data-name="Vector" d="M.833,1.666A.83.83,0,0,1,.517,1.6a.86.86,0,0,1-.275-.175L.142,1.3a.631.631,0,0,1-.075-.15A.53.53,0,0,1,.017,1,1.253,1.253,0,0,1,0,.832.876.876,0,0,1,.242.241.86.86,0,0,1,.517.066a.832.832,0,0,1,.908.175.876.876,0,0,1,.242.592A1.253,1.253,0,0,1,1.65,1a.53.53,0,0,1-.05.15.631.631,0,0,1-.075.15,1.313,1.313,0,0,1-.1.125A.876.876,0,0,1,.833,1.666Z" transform="translate(12.083 10.418)" fill="#8a8d9f"/>
  <path id="Vector-6" data-name="Vector" d="M.833,1.656A.83.83,0,0,1,.517,1.59a.962.962,0,0,1-.275-.175A.876.876,0,0,1,0,.823.83.83,0,0,1,.067.506.778.778,0,0,1,.242.231a.873.873,0,0,1,1.183,0,.876.876,0,0,1,.242.592.876.876,0,0,1-.242.592A.876.876,0,0,1,.833,1.656Z" transform="translate(6.25 13.344)" fill="#8a8d9f"/>
  <path id="Vector-7" data-name="Vector" d="M.833,1.656a.876.876,0,0,1-.592-.242A.876.876,0,0,1,0,.823.83.83,0,0,1,.067.506.778.778,0,0,1,.242.231a.873.873,0,0,1,1.183,0A.778.778,0,0,1,1.6.506a.83.83,0,0,1,.067.317.876.876,0,0,1-.242.592A.876.876,0,0,1,.833,1.656Z" transform="translate(9.167 13.344)" fill="#8a8d9f"/>
  <path id="Vector-8" data-name="Vector" d="M.833,1.667a.876.876,0,0,1-.592-.242.778.778,0,0,1-.175-.275A.83.83,0,0,1,0,.834.83.83,0,0,1,.067.517.778.778,0,0,1,.242.242.832.832,0,0,1,.992.017a.5.5,0,0,1,.158.05A.631.631,0,0,1,1.3.142a1.313,1.313,0,0,1,.125.1.876.876,0,0,1,.242.592.876.876,0,0,1-.242.592A.876.876,0,0,1,.833,1.667Z" transform="translate(12.083 13.333)" fill="#8a8d9f"/>
  <path id="Vector-9" data-name="Vector" d="M14.792,1.25H.625A.63.63,0,0,1,0,.625.63.63,0,0,1,.625,0H14.792a.63.63,0,0,1,.625.625A.63.63,0,0,1,14.792,1.25Z" transform="translate(2.292 6.95)" fill="#8a8d9f"/>
  <path id="Vector-10" data-name="Vector" d="M11.458,16.667H4.792C1.75,16.667,0,14.917,0,11.875V4.792C0,1.75,1.75,0,4.792,0h6.667C14.5,0,16.25,1.75,16.25,4.792v7.083C16.25,14.917,14.5,16.667,11.458,16.667ZM4.792,1.25C2.408,1.25,1.25,2.408,1.25,4.792v7.083c0,2.383,1.158,3.542,3.542,3.542h6.667c2.383,0,3.542-1.158,3.542-3.542V4.792c0-2.383-1.158-3.542-3.542-3.542Z" transform="translate(1.875 2.292)" fill="#8a8d9f"/>
  <path id="Vector-11" data-name="Vector" d="M0,0H20V20H0Z" fill="none" opacity="0"/>
</svg>
