<svg id="Group_3588" data-name="Group 3588" xmlns="http://www.w3.org/2000/svg" xmlns:xlink="http://www.w3.org/1999/xlink" width="50" height="40.714" viewBox="0 0 50 40.714">
  <defs>
    <clipPath id="clip-path">
      <rect id="Rectangle_3308" data-name="Rectangle 3308" width="50" height="40.714" fill="#fff"/>
    </clipPath>
  </defs>
  <g id="Group_3587" data-name="Group 3587" clip-path="url(#clip-path)">
    <path id="Path_674" data-name="Path 674" d="M0,36.085V11.379c.106-.024.088-.116.108-.191A5.508,5.508,0,0,1,5.848,6.768q2.807,0,5.613,0h.86c0-.564.013-1.081,0-1.6A4.957,4.957,0,0,1,17.444,0c5.043.05,10.087.013,15.131.015a5.067,5.067,0,0,1,1.45.153,4.882,4.882,0,0,1,3.652,4.876c0,.563,0,1.125,0,1.72h.592c2.18.005,4.361-.029,6.54.027a5.457,5.457,0,0,1,5.1,4.566A7.494,7.494,0,0,1,50,12.522q0,11.2,0,22.4a5.631,5.631,0,0,1-.529,2.6,5.485,5.485,0,0,1-5.27,3.187q-19.207-.006-38.414,0c-.179,0-.358-.008-.536-.017a5.5,5.5,0,0,1-5-3.853C.172,36.589.2,36.3,0,36.085m25-.135A12.209,12.209,0,1,0,12.793,23.762,12.256,12.256,0,0,0,25,35.949" transform="translate(-0.001 0)" fill="#fff"/>
    <path id="Path_675" data-name="Path 675" d="M200.853,179.048a8.062,8.062,0,1,1-8.015-8.07,8.077,8.077,0,0,1,8.015,8.07" transform="translate(-167.793 -155.302)" fill="#fff"/>
  </g>
</svg>
