<svg xmlns="http://www.w3.org/2000/svg" width="20" height="20" viewBox="0 0 20 20">
  <g id="Vector" fill="none">
    <path d="M10,20A10,10,0,1,1,20,10,10.008,10.008,0,0,1,10,20Z" stroke="none"/>
    <path d="M 10 17 C 13.85980987548828 17 17 13.85980987548828 17 10 C 17 6.140190124511719 13.85980987548828 3 10 3 C 6.140190124511719 3 3 6.140190124511719 3 10 C 3 13.85980987548828 6.140190124511719 17 10 17 M 10 20 C 4.483719825744629 20 0 15.51628017425537 0 10 C 0 4.483719825744629 4.483719825744629 0 10 0 C 15.51628017425537 0 20 4.483719825744629 20 10 C 20 15.51628017425537 15.51628017425537 20 10 20 Z" stroke="none" fill="#8a8d9f"/>
  </g>
</svg>
