<svg xmlns="http://www.w3.org/2000/svg" width="24" height="24" viewBox="0 0 24 24">
  <g id="vuesax_bold_verify" data-name="vuesax/bold/verify" transform="translate(-748 -444)">
    <g id="verify" transform="translate(748 444)">
      <path id="Vector" d="M19.493,8.715,18.138,7.14a2.209,2.209,0,0,1-.469-1.256V4.189a1.932,1.932,0,0,0-1.924-1.924H14.05A2.236,2.236,0,0,1,12.794,1.8L11.219.441a2.009,2.009,0,0,0-2.512,0L7.142,1.807a2.3,2.3,0,0,1-1.256.459H4.162A1.932,1.932,0,0,0,2.238,4.189v1.7A2.268,2.268,0,0,1,1.779,7.14L.434,8.725a2.007,2.007,0,0,0,0,2.492L1.779,12.8a2.268,2.268,0,0,1,.459,1.246v1.7a1.932,1.932,0,0,0,1.924,1.924H5.886a2.236,2.236,0,0,1,1.256.469L8.717,19.5a2.009,2.009,0,0,0,2.512,0L12.8,18.145a2.209,2.209,0,0,1,1.256-.469h1.695a1.932,1.932,0,0,0,1.924-1.924V14.058a2.236,2.236,0,0,1,.469-1.256L19.5,11.227A2.022,2.022,0,0,0,19.493,8.715ZM14.11,8.087,9.3,12.9a.746.746,0,0,1-1.057,0L5.827,10.489A.747.747,0,1,1,6.883,9.433l1.884,1.884L13.054,7.03A.747.747,0,1,1,14.11,8.087Z" transform="translate(2.037 2.029)" fill="#1c2340"/>
      <path id="Vector-2" data-name="Vector" d="M0,0H24V24H0Z" transform="translate(24 24) rotate(180)" fill="none" opacity="0"/>
    </g>
  </g>
</svg>
